<svg xmlns="http://www.w3.org/2000/svg" viewBox="0 0 1600 720" role="img" aria-labelledby="title desc">
  <title id="title">医師が子どもを診察する風景のプレースホルダー</title>
  <desc id="desc">右側に白衣の医師と診察を受ける子どもを描いたプレースホルダー</desc>
  <rect width="1600" height="720" fill="#e8f4f5"/><circle cx="1320" cy="130" r="100" fill="#fff3c9"/><path d="M1030 634h500" stroke="#c8ab97" stroke-width="18" stroke-linecap="round"/>
  <rect x="1140" y="392" width="290" height="126" rx="34" fill="#f8d7db"/><rect x="1190" y="350" width="162" height="72" rx="25" fill="#fff"/>
  <circle cx="1280" cy="295" r="72" fill="#f2c4a7"/><path d="M1209 294c0-92 142-112 150 0-28-25-117-30-150 0" fill="#594b47"/><path d="M1194 365c16 54 59 70 88 70 33 0 77-22 90-70" fill="#fff"/><path d="M1284 375l-31 58m31-58 33 58" stroke="#9ac4ca" stroke-width="9"/>
  <circle cx="1455" cy="400" r="49" fill="#f1bd9f"/><path d="M1406 400c4-76 103-88 105 1-22-18-77-22-105-1" fill="#5c4c46"/><path d="M1415 445c0 70 30 112 74 112s71-42 71-112" fill="#dff0df"/><path d="M1426 466c-41 2-73-11-105-35M1360 444c-38 22-70 35-104 35" fill="none" stroke="#f1bd9f" stroke-width="18" stroke-linecap="round"/>
  <text x="1230" y="680" text-anchor="middle" font-family="sans-serif" font-size="24" fill="#806f65">診察風景（プレースホルダー画像）</text>
</svg>
